<svg xmlns:dc="http://purl.org/dc/elements/1.1/" xmlns:cc="http://creativecommons.org/ns#" xmlns:rdf="http://www.w3.org/1999/02/22-rdf-syntax-ns#" xmlns:svg="http://www.w3.org/2000/svg" xmlns="http://www.w3.org/2000/svg" xmlns:sodipodi="http://sodipodi.sourceforge.net/DTD/sodipodi-0.dtd" xmlns:inkscape="http://www.inkscape.org/namespaces/inkscape" version="1.1" x="0px" y="0px" viewBox="0 0 100 125"><g transform="translate(0,-952.36218)"><path style="text-indent:0;text-transform:none;direction:ltr;block-progression:tb;baseline-shift:baseline;color:#000000;enable-background:accumulate;" d="m 18.28125,959.36443 c -0.4584,0.0875 -0.82072,0.5334 -0.8125,1 l 0,10.0625 -8.4687499,0 c -0.52358,5e-5 -0.99995,0.47642 -1,1 l 0,5.4375 c 5e-5,0.52359 0.47642,0.99995 1,1 l 8.4687499,0 0,10.46875 -8.4687499,0 c -0.52358,5e-5 -0.99995,0.47642 -1,1 l 0,5.4375 c 5e-5,0.52359 0.47642,0.99995 1,1 l 8.4687499,0 0,10.50002 -8.4687499,0 c -0.52358,0 -0.99995,0.4764 -1,1 l 0,5.4374 c 5e-5,0.5236 0.47642,1 1,1 l 8.4687499,0 0,10.4688 -8.4687499,0 c -0.52358,0 -0.99995,0.4764 -1,1 l 0,5.4687 c 5e-5,0.5236 0.47642,1 1,1 l 8.4687499,0 0,12.7188 c 5e-5,0.5236 0.47642,0.9999 1,1 24.17708,0 48.35417,0 72.53125,0 0.52358,-10e-5 0.99995,-0.4764 1,-1 l 0,-83.99997 c -5e-5,-0.52358 -0.47642,-0.99995 -1,-1 -24.17708,0 -48.35417,0 -72.53125,0 -0.0623,-0.006 -0.12518,-0.006 -0.1875,0 z m 1.1875,2 62.53125,0 0,81.99997 -62.53125,0 z m 64.53125,0 6,0 0,81.99997 -6,0 z m -74,11.0625 7.46875,0 0,3.4375 -7.46875,0 z m 0,17.90625 7.46875,0 0,3.4375 -7.46875,0 z m 0,17.93752 7.46875,0 0,3.4375 -7.46875,0 z m 0,17.9062 7.46875,0 0,3.4687 -7.46875,0 z" fill="#000000" fill-opacity="1" fill-rule="evenodd" stroke="none" marker="none" visibility="visible" display="inline" overflow="visible"/><path style="text-indent:0;text-transform:none;direction:ltr;block-progression:tb;baseline-shift:baseline;color:#000000;enable-background:accumulate;" d="m 31.803045,971.34011 a 1.0001002,1.0001002 0 0 0 -1.000229,0.99992 l 0,14.00137 a 1.0001002,1.0001002 0 0 0 1.000229,0.99991 l 30.001319,0 a 1.0001002,1.0001002 0 0 0 0.999919,-0.99991 l 0,-14.00137 a 1.0001002,1.0001002 0 0 0 -0.999919,-0.99992 l -30.001319,0 z m 0.999919,1.99984 28.001481,0 0,12.00153 -28.001481,0 0,-12.00153 z" fill="#000000" fill-opacity="1" fill-rule="evenodd" stroke="none" marker="none" visibility="visible" display="inline" overflow="visible"/></g><text x="0" y="115" fill="#000000" font-size="5px" font-weight="bold" font-family="'Helvetica Neue', Helvetica, Arial-Unicode, Arial, Sans-serif">Created by GreenHill</text><text x="0" y="120" fill="#000000" font-size="5px" font-weight="bold" font-family="'Helvetica Neue', Helvetica, Arial-Unicode, Arial, Sans-serif">from the Noun Project</text></svg>